<?xml version="1.0" encoding="UTF-8"?>
<svg id="Layer_2" data-name="Layer 2" xmlns="http://www.w3.org/2000/svg" viewBox="0 0 224.74 85.95">
  <defs>
    <style>
      .cls-1 {
        fill: #b17f4a;
      }

      .cls-1, .cls-2, .cls-3, .cls-4, .cls-5, .cls-6 {
        stroke-width: 0px;
      }

      .cls-2 {
        fill: #fde9cc;
      }

      .cls-3 {
        fill: #e93842;
      }

      .cls-4 {
        fill: #b84d29;
      }

      .cls-5 {
        fill: #1d1d1b;
      }

      .cls-6 {
        fill: #fbba00;
      }
    </style>
  </defs>
  <g id="_800x800px" data-name="800x800px">
    <g>
      <path class="cls-4" d="M212.35,34.88c-1.49.19-2.88-.02-4.18-.64,0,0,0-.02-.01-.03-.05-.1-.15-.13-.26-.11-.39-.2-.79-.43-1.17-.71-.16-.12-.36.14-.22.28.37.36.79.66,1.23.92.24,1.55,1.09,3.11,1.97,4.42-1.64-.12-2.99-.74-4.38-1.65-.3-.94-.69-1.84-1.17-2.71-.18-.33-.68-.03-.5.29.65,1.17,1.15,2.4,1.43,3.7.18.83.92,3.52-.54,3.17-.93-.22-2.08-1.36-2.72-2.03-.96-.98-1.57-2.05-1.99-3.35-.05-.17-.28-.1-.26.07.18,1.25.77,2.36,1.57,3.31-.06.03-.11.09-.14.17-.29.92-.77,1.74-1.43,2.45-.64.67-1.41,1.09-2.14,1.62h0s-.03-.08-.07-.12c-.62-.56-1.25-1.04-1.78-1.68-.5-.62-.88-1.32-1.24-2.04.6-1.43,1.03-2.94,1.28-4.49.06-.38-.52-.55-.59-.16-.48,2.67-1.4,5.21-2.91,7.48-.2.29-1,1.74-1.34,1.76-.88.08-1.18-1.52-1.32-2.07-.41-1.57-.46-3.14-.52-4.74.51-.59.94-1.26,1.24-2,.12-.29-.35-.48-.5-.21-1.37,2.49-3.54,4.2-6.39,4.47.25-1.26.99-2.21,1.78-3.18.72-.29,1.42-.65,2.08-1.07.32-.21.02-.74-.31-.52-.42.28-.84.5-1.26.71-.03-.01-.07-.01-.11.02-.03.03-.07.05-.1.09-1.7.77-3.47,1.04-5.42,1.02,3.7-2.88,6.14-6.91,6.85-11.56.98-6.45-.54-13.35,5.56-17.62.18.8.65,1.55,1.28,2.06.05.04.1.04.16.02.03.17.29.26.43.08,3.36-4.53,9.83-4.69,12.93.18,1.99,3.13,1.72,7.17,1.53,10.69-.26,4.88-.38,10.27,3.67,13.69ZM209.06,31.43c.09.15.33.01.24-.14-.46-.81-.76-1.63-.94-2.54-.02-.1-.18-.08-.18.02.08.94.39,1.85.88,2.66ZM208.73,31.84c.16.08.33-.12.19-.26-.24-.24-.5-.44-.68-.75-.17-.29-.27-.62-.32-.96-.03-.15-.26-.11-.26.03.03.71.41,1.58,1.07,1.93ZM203.19,20.55c1.39-.07,2.44-1.4,2.36-2.75-.03-.43-.67-.43-.66,0,.03,1.01-.66,2.03-1.74,2.09-1.11.07-1.87-.83-2.12-1.83-.05-.21-.37-.16-.37.05-.06,1.35,1.21,2.5,2.54,2.44ZM203.46,8.79c.22.09.4-.19.19-.33-.65-.43-1.56-.5-2.29-.23-.2.07-.12.37.09.32.73-.14,1.32-.05,2,.24ZM202.7,7.95c.2.08.29-.22.14-.32-.74-.52-1.91-.51-2.65.01-.11.08-.05.29.1.24.88-.31,1.55-.28,2.4.07ZM200.84,26.93c.61-.65,1-1.47.96-2.5-.09-2.15-2.14-2.95-4.02-2.91-1.87.05-4.16,1.02-4.16,3.2,0,.79.36,1.4.88,1.91-.75,1.98,1.14,3.64,3.05,3.88,1.97.24,4.18-1.24,3.43-3.42-.03-.08-.07-.12-.12-.16ZM195.18,17.95c.03-.42-.6-.41-.65,0-.12,1.07-1.08,2.01-2.21,1.83-1.05-.17-1.62-1.05-1.79-2.04-.04-.2-.31-.12-.33.05-.17,1.33,1,2.59,2.33,2.65,1.4.07,2.54-1.15,2.65-2.49ZM185.97,33.37c.08-.18-.21-.29-.31-.13-.42.71-.86,1.32-1.5,1.85-.1.09.03.26.14.19.71-.44,1.35-1.13,1.66-1.91ZM185.09,33.54c.1-.12-.05-.26-.17-.17-.56.45-1.14,1-1.55,1.59-.03.04.03.1.07.07.61-.38,1.18-.94,1.64-1.49Z"/>
      <path class="cls-1" d="M223.48,50.18c1.67,6.19-.2,13.22-5.5,17.03-.92-3.9.73-7.14,2.69-10.47.22-.39-.35-.71-.6-.35-.98,1.5-1.91,3.16-2.48,4.89-1.93-3.41-2.55-6.58-1.4-10.47.12-.4-.46-.54-.61-.16-.46,1.16-.7,2.44-.73,3.73-2.52-2.61-1.62-7.29-1.07-10.48.07-.4-.48-.56-.61-.17-.29.9-.54,2.02-.68,3.2-1.65-2.08-2.56-4.35-2.16-7.1.01-.09,0-.16-.05-.22.2-.01.35-.25.24-.43-.93-1.34-1.44-2.76-2.04-4.21,1.07.47,2.26.67,3.43.58,5.06,3.93,9.83,8.16,11.57,14.62ZM219.82,44.61c.12.14.33-.04.25-.2-.46-.9-1.45-1.65-2.38-2-.13-.05-.21.15-.09.22.45.27.88.54,1.26.9.36.33.64.72.96,1.09ZM219.16,45.34c.07.17.33.1.28-.08-.18-.74-.74-1.35-1.4-1.7-.13-.07-.24.12-.12.2.62.37.99.92,1.24,1.58Z"/>
      <path class="cls-5" d="M220.07,44.41c.08.16-.12.34-.25.2-.32-.37-.6-.75-.96-1.09-.39-.35-.82-.63-1.26-.9-.12-.07-.04-.27.09-.22.93.35,1.93,1.1,2.38,2Z"/>
      <path class="cls-5" d="M219.44,45.26c.05.18-.22.25-.28.08-.25-.66-.62-1.21-1.24-1.58-.12-.07-.01-.26.12-.2.66.35,1.22.96,1.4,1.7Z"/>
      <path class="cls-5" d="M183,46.86c1.69-1.79,2.56-4.01,2.41-6.47-.79.28-1.62.45-2.46.48-.14,0-.3-.13-.28-.28.16-1.24.75-2.29,1.56-3.19-.9.28-1.83.44-2.77.45,0,.05-.02.1-.08.12-8.31,3.73-13.85,17.76-9.1,26.15-.05-.09-.09-.19-.12-.29-.07-.17.2-.27.29-.12.55.92,1.19,1.66,2.16,2.15.09.05.03.19-.07.16-.73-.24-1.43-.72-1.91-1.35.84,1.31,1.95,2.46,3.35,3.39.07.05.1.1.11.16.33-2.04.76-3.87.3-5.95-.29-1.36-1.13-2.54-1.3-3.92-.04-.31.45-.35.54-.07.45,1.48,1.11,2.75,1.42,4.22,2.06-2.76,1.52-7.51,1.28-10.67-.02-.29.46-.36.52-.07.18.92.33,2.08.37,3.3,1.68-.64,2.39-3.85,2.74-5.37.39-1.74.47-3.46.37-5.23-.03-.43.64-.42.66,0,.05.8.05,1.59,0,2.38ZM212.49,35.49c10.91,6.45,18.24,23.82,5.58,32.45-.26.18-.51-.11-.45-.36-.18-.43-.3-.86-.4-1.3-3,3.33-6.79,6.17-11.07,7.6-.48,1.03-1.13,1.94-2.14,2.31-.05.02-.09.03-.14.04.06.04.1.1.1.2.01.88.03,1.78-.03,2.67,2.34-1.17,5.22-.54,7.16,1.09.21.18-.02.5-.26.44-1.4-.33-2.76-.4-4.17-.25,1.62.58,3.24,1.59,3.37,3.43,0,.16-.18.2-.28.11-.03,0-.06-.02-.09-.05-.93-.97-2.02-1.62-3.3-1.85.7.67,1.11,1.57,1.13,2.57.17.22-.12.49-.34.31-2.97-2.54-6.72-2.82-10.12-1.01-.18.09-.32-.09-.26-.24-.09-.06-.15-.16-.13-.29.33-2.38,2.82-4.68,5.33-4.23-.02-1-.01-2,.07-2.99-.86-.28-1.71-.84-2.47-1.47-.04.02-.08.04-.13.04-3.01.09-6.59.35-9.49-.58-.8.88-1.77,1.51-2.99,1.49.04.41.05.82.09,1.23.03.44.1.88.16,1.31.03,0,.06-.01.1-.01,2.69.13,4.23,2.84,4.2,5.32,0,.03-.01.05-.03.07.1.25-.2.52-.43.3-3.03-2.9-6.31-.86-8.22,2.02-.07.1-.22.07-.25-.04-.11.03-.24-.02-.29-.17-.41-1.09-.14-2.25.52-3.15-1.36.5-2.73.98-4.11,1.33-.11.03-.19-.07-.2-.16-.1-.07-.18-.22-.1-.37.47-.94,1.17-1.76,2.04-2.34.55-.37,1.1-.54,1.66-.67-1.21-.05-2.4-.04-3.63.03-.09,0-.15-.07-.16-.14-.02-.02-.05-.03-.06-.05-.58-1,1.38-1.54,2.04-1.74,1.48-.43,3.26-.51,4.7.12-.14-1.09-.18-2.29.18-3.34-.71-.39-1.25-1-1.63-1.74-.23-.44-.51-1.03-.66-1.61-2.35-.84-4.56-2.28-6.37-3.98-.09.18-.18.34-.28.5-.05.09-.16.05-.18-.03-.04.14-.18.25-.35.16-5.9-3.41-6.2-10.67-4.96-16.67,1.22-5.88,4.13-11.82,10.04-13.99-.36-.02-.71-.07-1.07-.13-.13-.03-.15-.16-.1-.27-.22-.05-.39-.39-.18-.57,2.92-2.4,5.17-5.41,6.19-9.09.98-3.5.62-7.17,1.04-10.74.43-3.67,1.88-7.83,5.58-9.3-.07-.69.06-1.38.48-1.97.56-.79,1.64-1.26,2.58-1.09-1.05-1.89,1.54-4.17,3.31-4.58,2.32-.54,4.73.94,5.18,3.24,1.19-1.63,4.4-.19,5.49,1.03,1.93,2.16,1.67,5.65-.6,7.46-.04.03-.07.05-.11.05,2.8,7.33-2.36,16.68,4.32,22.62.09.09.11.18.1.27.35-.05.48.47.13.57-.22.06-.45.1-.67.14ZM217.98,67.21c5.3-3.81,7.17-10.84,5.5-17.03-1.74-6.45-6.51-10.69-11.57-14.62-1.17.1-2.35-.1-3.43-.58.6,1.45,1.11,2.87,2.04,4.21.12.18-.03.41-.24.43.04.06.06.13.05.22-.4,2.75.51,5.02,2.16,7.1.14-1.18.39-2.3.68-3.2.13-.39.67-.23.61.17-.55,3.19-1.45,7.88,1.07,10.48.03-1.3.28-2.57.73-3.73.15-.37.73-.24.61.16-1.15,3.89-.53,7.06,1.4,10.47.57-1.74,1.49-3.39,2.48-4.89.24-.37.82-.04.6.35-1.96,3.33-3.61,6.57-2.69,10.47ZM217.09,65.55s0,0,0,0c-.15-1.27,0-2.55.36-3.79-1.65-1.76-2.52-4.24-2.59-6.72-2.16-1.49-2.65-4.61-2.42-7.49-2.3-1.87-3.16-5.02-2.73-7.88,0-.02.01-.04.02-.06-1.5-.11-3.03-.61-4.21-1.56.16.58.29,1.18.37,1.79.08.67.6,2.82-.52,2.95-1.06.12-2.87-1.59-3.58-2.28-.07-.07-.14-.14-.21-.22-.6,1.75-2.08,3.75-4.01,4.06-.09.01-.15-.03-.18-.09-.07.08-.19.12-.3.07-1.32-.71-2.4-2.16-2.94-3.6-.19.43-.39.85-.62,1.26-.45.81-1.7,3.31-2.71,3.6-2.29.67-2.33-5.35-2.12-7.3-.75.79-1.67,1.42-2.67,1.86,0,.03.02.05.03.09.2,2.63-.78,5.16-2.79,6.89-.1.09-.22.05-.28-.03-.12,1.76-.5,3.49-1.17,5.15-.49,1.21-1.11,3.05-2.57,3.2.06,2.8-.41,5.9-2.1,7.52.03.17.05.34.07.52.1,1.36-.01,2.82-.55,4.09,1.97,1.42,4,2.54,6.15,3.62,0-.21.02-.42.09-.6.04-.1.23-.14.25,0,.04.28.1.58.19.87,0,0,.02,0,.03.01.14.07.14.23.08.34.51,1.47,1.57,2.87,3.09,3.1,2.33.35,2.96-1.56,4.29-2.9.23-.23.64.07.46.35-.36.57-.76,1.15-1.2,1.65,2.89-.29,5.95.14,8.88.12-.41-.37-.79-.73-1.1-1.04-.14-.14.04-.39.21-.28,1.3.88,3.39,2.97,5.09,2.84,2.14-.15,2.74-3.18,3.37-4.76.16-.41.82-.24.66.18-.25.66-.5,1.45-.82,2.23,4.08-1.99,7.65-4.35,10.7-7.78ZM208.17,34.24c1.3.62,2.69.83,4.18.64-4.05-3.43-3.93-8.81-3.67-13.69.19-3.52.45-7.57-1.53-10.69-3.11-4.87-9.57-4.72-12.93-.18-.14.18-.4.09-.43-.08-.05.02-.11.02-.16-.02-.63-.51-1.09-1.26-1.28-2.06-6.09,4.27-4.57,11.17-5.56,17.62-.71,4.66-3.14,8.68-6.85,11.56,1.95.02,3.73-.25,5.42-1.02.03-.03.07-.06.1-.09.04-.03.08-.03.11-.02.43-.2.85-.43,1.26-.71.33-.22.63.31.31.52-.66.43-1.36.79-2.08,1.07-.79.96-1.53,1.92-1.78,3.18,2.86-.27,5.03-1.98,6.39-4.47.15-.27.62-.08.5.21-.3.74-.73,1.41-1.24,2,.07,1.6.11,3.17.52,4.74.14.55.45,2.15,1.32,2.07.33-.03,1.14-1.47,1.34-1.76,1.51-2.27,2.43-4.81,2.91-7.48.07-.39.65-.22.59.16-.25,1.55-.67,3.05-1.28,4.49.35.72.73,1.42,1.24,2.04.52.65,1.16,1.13,1.78,1.68.04.04.06.08.07.12h0c.73-.54,1.51-.96,2.14-1.63.66-.71,1.13-1.53,1.43-2.45.03-.09.08-.14.14-.17-.8-.95-1.38-2.06-1.57-3.31-.03-.17.2-.24.26-.07.43,1.3,1.03,2.37,1.99,3.35.64.67,1.79,1.81,2.72,2.03,1.47.35.73-2.35.54-3.17-.28-1.3-.79-2.54-1.43-3.7-.18-.32.32-.62.5-.29.48.86.86,1.77,1.17,2.71,1.39.91,2.74,1.53,4.38,1.65-.88-1.31-1.72-2.88-1.97-4.42-.44-.26-.86-.56-1.23-.92-.14-.14.05-.41.22-.28.39.28.78.5,1.17.71.1-.02.21,0,.26.11,0,0,0,.02.01.03ZM208.37,11.31c1.4-1.49,2.12-3.6,1.08-5.54-.8-1.48-4.39-4.02-5.55-1.49-.07.16-.24.14-.34.05-.12,0-.22-.07-.25-.21-.27-1.88-1.66-3.44-3.66-3.42-1.88.01-5.01,2.11-3.67,4.23.13.08.26.16.37.28.22.22-.07.61-.35.44-1.04-.64-2.41-.29-2.93.86-.54,1.21.09,2.5.77,3.5,3.34-5.08,10.65-5.2,13.9.12.23.39.43.78.61,1.17ZM205.86,80.13c1.32-.31,2.63-.37,3.95-.2-1.8-1.05-3.82-1.04-5.86-.33-.02,0-.03,0-.05,0-.07.19-.35.18-.37-.05-.1-1.03-.07-2.08-.06-3.11,0-.05.01-.09.03-.12-.35.05-.71.03-1.06-.05.08,1.03.09,2.08.06,3.11,0,.23-.26.29-.4.18-2.31.24-4.25,1.43-4.84,3.78,3.03-1.91,7.17-1.48,9.83.86-.21-.96-.79-1.78-1.68-2.28-.22-.12-.12-.47.12-.47,1.36,0,2.7.49,3.71,1.38-.83-1.26-2.29-1.8-3.81-2.22-.35-.1-.2-.64.16-.55.09.02.17.05.26.07ZM191.01,83.02c-.52-1.95-1.33-4.01-3.68-4.17-.09,0-.15-.04-.2-.08-.12.04-.28,0-.31-.16-.23-.9-.29-2.03-.1-2.97-.24-.03-.49-.06-.75-.13-.14-.05-.29-.09-.43-.15-.01,1.1-.12,2.18.06,3.3.05.3-.34.45-.49.26-.92-.1-1.81-.29-2.74-.24-.53.03-3.51.41-3.62,1.3,1.65-.28,3.35-.28,5.01-.04.29.05.2.46-.07.47h0c-.14,0-.28,0-.43-.02-.83.03-1.78.56-2.39.99-.76.52-1.34,1.18-1.8,1.96,1.57-.7,3.23-1.26,4.84-1.82.33-.12.48.35.22.52-1.13.76-1.52,1.98-1.36,3.26,1.26-3.18,5.62-4.63,8.24-2.28Z"/>
      <path class="cls-2" d="M217.09,65.54s0,0,0,0c-3.05,3.43-6.62,5.79-10.7,7.78.32-.78.57-1.58.82-2.23.16-.41-.5-.58-.66-.18-.64,1.58-1.24,4.61-3.37,4.76-1.7.12-3.79-1.97-5.09-2.84-.17-.11-.35.14-.21.28.31.31.69.67,1.1,1.04-2.94.02-5.99-.42-8.88-.12.44-.5.84-1.08,1.2-1.65.18-.28-.23-.58-.46-.35-1.33,1.34-1.96,3.24-4.29,2.9-1.51-.23-2.57-1.62-3.09-3.1.07-.11.06-.27-.08-.34-.01,0-.03-.01-.03-.01-.09-.29-.15-.59-.19-.87-.02-.14-.21-.1-.25,0-.07.18-.09.39-.09.6-2.15-1.07-4.18-2.2-6.15-3.62.54-1.27.66-2.73.55-4.09-.01-.18-.04-.35-.07-.52,1.68-1.62,2.16-4.72,2.1-7.52,1.46-.15,2.08-1.99,2.57-3.2.67-1.66,1.05-3.39,1.17-5.15.06.08.18.11.28.03,2.01-1.73,2.99-4.26,2.79-6.89,0-.04-.02-.07-.03-.09,1-.45,1.92-1.07,2.67-1.86-.22,1.95-.18,7.97,2.12,7.3,1.01-.29,2.26-2.8,2.71-3.6.22-.41.43-.83.62-1.26.54,1.44,1.62,2.88,2.94,3.6.11.06.23.01.3-.07.03.06.09.1.18.09,1.93-.31,3.41-2.31,4.01-4.06.07.07.14.14.21.22.71.69,2.52,2.4,3.58,2.28,1.12-.13.6-2.28.52-2.95-.08-.61-.21-1.21-.37-1.79,1.18.95,2.71,1.45,4.21,1.56,0,.02-.02.04-.02.06-.44,2.86.43,6.01,2.73,7.88-.23,2.88.26,6,2.42,7.49.08,2.48.94,4.95,2.59,6.72-.35,1.24-.51,2.52-.36,3.79ZM206.75,51.34c.56-.29.98-1.03.74-1.65-.07-.19-.41-.18-.37.05.07.55,0,1.05-.5,1.38-.14.09-.02.31.14.23ZM206.86,49.29c.07-.22-.26-.3-.34-.09-.21.6-.49,1.11-.94,1.57-.09.09.04.22.14.14.51-.42.94-.98,1.14-1.61ZM203.11,50.09c1.15.7,2.87-.21,2.7-1.67-.04-.35-.54-.36-.55,0-.07,1.2-1.1,1.78-2.13,1.24,0-.05,0-.1-.01-.15-.04-.27-.47-.2-.47.07.01,1.67-1.74,2.37-2.87,1.12-.09-.1-.26.03-.19.14.96,1.57,3.27.85,3.52-.75ZM203.77,74.6c.2-.03.14-.35-.05-.35-.77,0-1.33-.19-1.96-.65-.12-.09-.23.09-.15.19.5.6,1.4.92,2.16.81ZM202.55,75.05c.18.05.26-.23.08-.29-.76-.24-1.38-.63-1.85-1.28-.07-.1-.25-.01-.18.1.43.71,1.13,1.27,1.95,1.46ZM201.18,59.36c.11-.28-.35-.47-.48-.2-.83,1.65-2.61,1.89-3.93.64-.08-.07-.18-.04-.24.03,0-.03.01-.07.01-.1.02-.38-.53-.36-.58,0-.19,1.56-1.34,2.99-2.99,3.1-1.69.1-2.85-1.05-3.43-2.52,0-.08-.05-.14-.1-.18-.09-.1-.26-.08-.27.07-.53.65-1.16,1.19-2.06.96-.97-.24-1.43-1.43-.63-2.14.14-.12-.06-.3-.19-.19-.85.67-.66,2,.26,2.52.87.49,2.11.24,2.74-.54.47,1.55,2.09,2.68,3.73,2.59,1.83-.1,3.29-1.64,3.5-3.42,0,0,0,.01,0,.01,1.23,1.74,3.89,1.28,4.66-.63Z"/>
      <path class="cls-3" d="M209.45,5.77c1.04,1.93.31,4.05-1.08,5.54-.18-.39-.38-.79-.61-1.17-3.25-5.33-10.56-5.2-13.9-.12-.68-1-1.32-2.29-.77-3.5.52-1.16,1.89-1.51,2.93-.86.28.17.57-.22.35-.44-.12-.12-.24-.2-.37-.28-1.34-2.12,1.79-4.21,3.67-4.23,2-.02,3.39,1.54,3.66,3.42.03.14.13.2.25.21.1.1.28.11.34-.05,1.16-2.54,4.75,0,5.55,1.49Z"/>
      <path class="cls-5" d="M209.3,31.28c.09.16-.15.29-.24.14-.49-.81-.8-1.72-.88-2.66,0-.1.16-.12.18-.02.18.9.48,1.73.94,2.54Z"/>
      <path class="cls-6" d="M209.81,79.92c-1.32-.16-2.63-.1-3.95.2-.09-.02-.17-.05-.26-.07-.36-.09-.51.45-.16.55,1.51.42,2.98.96,3.81,2.22-1.02-.89-2.35-1.38-3.71-1.38-.25,0-.34.34-.12.47.88.5,1.47,1.32,1.68,2.28-2.67-2.34-6.81-2.77-9.83-.86.6-2.35,2.53-3.54,4.84-3.78.14.11.39.05.4-.18.03-1.04.02-2.08-.06-3.11.35.07.71.09,1.06.05-.02.03-.03.07-.03.12-.01,1.03-.05,2.08.06,3.11.03.23.3.24.37.05.02,0,.03,0,.05,0,2.04-.71,4.06-.71,5.86.33Z"/>
      <path class="cls-5" d="M208.92,31.58c.14.13-.03.33-.19.26-.66-.35-1.04-1.21-1.07-1.93,0-.14.23-.18.26-.03.05.33.15.66.32.96.18.31.44.5.68.75Z"/>
      <path class="cls-5" d="M207.49,49.69c.24.62-.18,1.36-.74,1.65-.16.08-.28-.14-.14-.23.5-.33.58-.83.5-1.38-.03-.23.31-.24.37-.05Z"/>
      <path class="cls-5" d="M206.52,49.19c.08-.21.41-.12.34.09-.2.64-.63,1.19-1.14,1.61-.1.08-.23-.05-.14-.14.45-.46.73-.97.94-1.57Z"/>
      <path class="cls-5" d="M205.81,48.42c.17,1.46-1.55,2.37-2.7,1.67-.25,1.59-2.56,2.31-3.52.75-.07-.11.1-.24.19-.14,1.13,1.25,2.88.55,2.87-1.12,0-.26.43-.33.47-.07.01.05,0,.1.01.15,1.03.54,2.06-.04,2.13-1.24.01-.36.51-.35.55,0Z"/>
      <path class="cls-5" d="M205.55,17.81c.08,1.34-.97,2.68-2.36,2.75-1.33.07-2.59-1.09-2.54-2.44,0-.21.32-.26.37-.05.24,1.01,1,1.9,2.12,1.83,1.08-.06,1.78-1.08,1.74-2.09-.01-.43.64-.43.66,0Z"/>
      <path class="cls-5" d="M203.72,74.25c.2,0,.26.32.05.35-.77.1-1.66-.22-2.16-.81-.08-.1.03-.28.15-.19.63.46,1.19.64,1.96.65Z"/>
      <path class="cls-5" d="M203.65,8.46c.21.14.03.42-.19.33-.68-.29-1.28-.38-2-.24-.22.05-.29-.25-.09-.32.73-.27,1.64-.2,2.29.23Z"/>
      <path class="cls-5" d="M202.84,7.63c.15.1.06.4-.14.32-.86-.35-1.53-.37-2.4-.07-.16.05-.22-.16-.1-.24.73-.52,1.91-.54,2.65-.01Z"/>
      <path class="cls-5" d="M202.63,74.76c.18.06.1.33-.08.29-.82-.19-1.52-.75-1.95-1.46-.07-.12.1-.21.18-.1.47.65,1.09,1.04,1.85,1.28Z"/>
      <path class="cls-5" d="M201.8,24.43c.04,1.04-.35,1.85-.96,2.5.05.03.1.08.12.16.75,2.18-1.46,3.66-3.43,3.42-1.91-.24-3.8-1.9-3.05-3.88-.52-.52-.88-1.12-.88-1.91,0-2.18,2.29-3.15,4.16-3.2,1.89-.05,3.93.76,4.02,2.91ZM197.8,28.06c1.58-.69,3.45-1.59,3.34-3.63-.12-2.27-2.88-2.5-4.58-2.1-1.17.28-2.26,1.11-2.25,2.39,0,.91.54,1.45,1.24,1.97.77.56,1.58,1,2.12,1.8.13.2-.15.38-.31.24-.71-.62-1.76-1.14-2.56-1.83-.06,1.49.75,2.63,2.33,2.98,1.66.38,3.87-.58,3.32-2.56-.69.57-1.56.99-2.41,1.28-.14.05-.26-.02-.32-.13-.09-.13-.09-.33.09-.41Z"/>
      <path class="cls-5" d="M196.51,59.97c-.21,1.78-1.66,3.32-3.5,3.42-1.64.09-3.26-1.04-3.73-2.59-.63.78-1.87,1.04-2.74.54-.92-.52-1.11-1.85-.26-2.52.13-.11.33.07.19.19-.81.7-.34,1.9.63,2.14.9.22,1.53-.31,2.06-.96,0-.14.18-.16.27-.07.06.04.1.1.1.18.58,1.46,1.74,2.61,3.43,2.52,1.66-.1,2.8-1.54,2.99-3.1.05-.36.6-.38.58,0,0,.03-.01.07-.01.1.06-.07.16-.1.24-.03,1.32,1.25,3.11,1.02,3.93-.64.13-.26.59-.07.48.2-.77,1.91-3.43,2.37-4.66.63,0,0,0,0,0-.01Z"/>
      <path class="cls-6" d="M201.14,24.43c.1,2.04-1.76,2.94-3.34,3.63-.18.07-.18.28-.09.41l-.03.02c-.54-.81-1.36-1.24-2.12-1.8-.7-.51-1.23-1.05-1.24-1.97-.01-1.28,1.07-2.12,2.25-2.39,1.7-.39,4.46-.16,4.58,2.1Z"/>
      <path class="cls-6" d="M200.44,27.32c.56,1.99-1.66,2.94-3.32,2.56-1.57-.35-2.38-1.49-2.33-2.98.81.69,1.85,1.21,2.56,1.83.16.14.45-.05.31-.24l.03-.02c.07.11.18.18.32.13.85-.29,1.72-.71,2.41-1.28Z"/>
      <path class="cls-5" d="M194.53,17.95c.05-.41.68-.42.65,0-.1,1.34-1.24,2.56-2.65,2.49-1.32-.06-2.5-1.32-2.33-2.65.02-.17.29-.25.33-.05.16.98.74,1.87,1.79,2.04,1.13.18,2.08-.75,2.21-1.83Z"/>
      <path class="cls-6" d="M187.33,78.85c2.35.16,3.16,2.22,3.68,4.17-2.61-2.35-6.97-.9-8.24,2.28-.16-1.28.24-2.5,1.36-3.26.26-.17.1-.64-.22-.52-1.61.56-3.27,1.12-4.84,1.82.47-.78,1.04-1.44,1.8-1.96.62-.43,1.57-.96,2.39-.99.14.01.28.02.43.03h0c.26-.03.35-.44.07-.48-1.65-.24-3.35-.24-5.01.04.11-.88,3.09-1.27,3.62-1.3.93-.05,1.82.13,2.74.24.15.19.54.04.49-.26-.18-1.12-.07-2.19-.06-3.3.14.06.28.1.43.15.26.07.51.1.75.13-.19.94-.13,2.07.1,2.97.03.15.2.2.31.16.05.04.12.08.2.08Z"/>
      <path class="cls-5" d="M185.66,33.24c.1-.16.39-.05.31.13-.31.78-.96,1.47-1.66,1.91-.12.07-.25-.1-.14-.19.64-.53,1.08-1.13,1.5-1.85Z"/>
      <path class="cls-1" d="M185.41,40.39c.14,2.46-.72,4.68-2.41,6.47.05-.79.05-1.58,0-2.38-.03-.42-.69-.43-.66,0,.1,1.77.03,3.49-.37,5.23-.35,1.51-1.05,4.72-2.74,5.37-.05-1.23-.19-2.38-.37-3.3-.06-.29-.54-.22-.52.07.24,3.16.79,7.91-1.28,10.67-.31-1.47-.98-2.74-1.42-4.22-.09-.28-.58-.24-.54.07.16,1.38,1,2.56,1.3,3.92.46,2.08.03,3.91-.3,5.95-.01-.06-.05-.11-.11-.16-1.41-.93-2.52-2.08-3.35-3.39.48.63,1.18,1.11,1.91,1.35.09.03.16-.11.07-.16-.98-.49-1.61-1.23-2.16-2.15-.09-.15-.35-.05-.29.12.03.1.08.2.12.29-4.75-8.39.79-22.41,9.1-26.15.06-.03.07-.07.08-.12.94-.01,1.87-.17,2.77-.45-.81.9-1.4,1.95-1.56,3.19-.02.15.14.29.28.28.84-.04,1.66-.2,2.46-.48ZM174.35,64.9c.14.07.25-.12.12-.21-.77-.47-1.18-1.2-1.36-2.07-.05-.2-.37-.16-.36.05.07.97.73,1.81,1.6,2.23Z"/>
      <path class="cls-5" d="M184.92,33.37c.12-.09.27.05.17.17-.47.55-1.04,1.11-1.64,1.49-.05.03-.1-.03-.07-.07.41-.6.98-1.15,1.55-1.59Z"/>
      <path class="cls-5" d="M174.47,64.69c.13.09.02.28-.12.21-.86-.41-1.53-1.26-1.6-2.23-.01-.21.31-.25.36-.05.18.87.58,1.6,1.36,2.07Z"/>
    </g>
    <g>
      <path class="cls-4" d="M127.02,23.6c.77,1.21,1.28,2.53,1.64,3.9l-1.68.43c0-.07,0-.13,0-.2-.03-.43-.69-.43-.67,0,.06,1.09-.77,2.03-1.88,2.04-1.03.01-1.76-.69-2.31-1.47-.1-.14-.37-.06-.31.13.28.83.99,1.52,1.83,1.81l-1.69.6c-.69-.37-1.53-.55-2.31-.56-1.14-.02-2.52.2-3.49.86l-1.83-.07c.66-.48,1.13-1.26,1.08-2.05-.02-.32-.45-.38-.56-.07-.29.86-.66,1.71-1.64,1.95-1.07.25-1.98-.59-2.2-1.58-.05-.18-.3-.12-.31.05l-1.4-.04c.37-3.05,1.2-5.94,3.56-8.23,0,0,0-.01,0-.02.6.96,1.76,1.66,2.81,1.66.05,0,.08-.03.09-.07l.08.05s-.03.06-.05.09c-.1.19.16.34.29.16,3.1-4.36,8.24-3.57,10.95.64Z"/>
      <path class="cls-4" d="M128.95,41.68c.85,1.12,1.69,2.23,2.54,3.35-1.83-.28-3.28-1.11-4.76-2.29-.16-.13-.35.06-.23.22.02.02.05.04.06.07-.22-.06-.5.18-.35.44.7,1.19,1.39,2.37,1.91,3.64.12.3,1.11,2.81.78,3.03-.43.28-.86-.29-1.28-.6-2.08-1.55-3.7-3.53-4.93-5.82-.18-.33-.61-.09-.56.24.28,1.76.32,3.52.02,5.29-.2,1.15-.73,4.37-1.99,4.57-.41.35-.66.29-.75-.16-.31-.56-.57-1.13-.79-1.74-.24-.62-.43-1.26-.59-1.9-.39-1.57-.51-3.18-.52-4.8,0-.09.02-.18.03-.27.01-.39-.59-.39-.61,0-.05,1.34-.24,2.67-.67,3.94-.24.71-1.76,4.36-2.69,4.08-1.35-.42-1.3-3.47-1.16-4.71.16-1.41.6-2.69,1.13-4.01.12-.3-.35-.47-.51-.21-1.15,1.77-2.57,3.27-4.38,4.4-.81.5-2,1.6-2.02-.52,0-1.12,1.61-2.61,2.25-3.35.2-.23-.05-.59-.33-.43-.9.49-2.91,1.61-4.18,1.31,5.12-3.89,4.21-10.29,4.93-16.1l1.4.04c-.1,1.28,1.14,2.28,2.37,2.19.45-.03.88-.21,1.26-.48l1.83.07c-.57.39-1,.93-1.18,1.66-.18.76-.01,1.47.52,2.03.1.1.2.21.31.31.07,2.1,1.9,3.82,4.02,3.65,1.9-.15,3.18-1.82,2.94-3.66.54-.41.9-.97.83-1.89-.08-1.15-.75-1.93-1.64-2.41l1.69-.6c.35.12.71.18,1.09.14,1.26-.12,2.25-1.21,2.25-2.46l1.68-.43c.36,1.33.58,2.71.8,4.05.66,4.04,1.22,8.2,4.21,11.18-1.57-.21-2.95-.62-4.33-1.44-.23-.14-.57.15-.39.39ZM129.81,38.83c.11.09.31-.02.22-.16-.56-.9-.98-1.62-.93-2.73.01-.2-.29-.2-.31,0-.1,1,.19,2.25,1.02,2.89ZM129.35,39.84c.18.11.32-.16.16-.27-.68-.48-1.13-1.09-1.43-1.87-.05-.13-.24-.09-.21.06.19.84.76,1.62,1.49,2.08ZM110.37,46.35c.11-.14-.07-.33-.2-.2-.66.66-1.34,1.17-2.22,1.48-.1.03-.07.19.05.16.9-.21,1.8-.71,2.37-1.44ZM110.22,45.56c.12-.12-.03-.3-.18-.23-.56.29-1.15.79-1.55,1.28-.07.09.03.27.14.18.28-.2.54-.44.81-.65.26-.2.52-.37.77-.59Z"/>
      <path class="cls-1" d="M155.34,54.82c.24,3.91-1.84,7.19-5.69,8.29-.42.12-.24.75.18.65,1.28-.32,2.41-.92,3.34-1.74-.82,2.44-4.16,3.75-6.41,4.34-1.02.26-2.06.44-3.1.55-.54.06-1.08.1-1.62.12-.54-.07-1.02.04-1.47.31.05-.15,0-.35-.18-.39-.03-.01-.07-.02-.09-.03-.03,0-.07,0-.1,0,3.8-6.27,3.28-15.87-1.78-21.09,3.85-1.15,7.58-2.95,10.96-5.09.52-.33,3.43-3,3.75-2.94.47.09-1.52,3.38-1.93,3.84-.83.93-1.84,1.68-2.77,2.5-.26.22.09.67.36.47,2.06-1.49,3.9-3.18,4.68-5.47h.01s-.02.08,0,.12c.83,3.86-.2,7.23-3.08,9.92-.27.25.09.75.4.52,1.73-1.27,2.92-3.2,3.39-5.29,1.56,1.33,2.19,3.03,2.19,4.78,0,3.08-1.95,6.33-4.34,8.09-.3.22-.04.71.3.51,1.14-.66,2.18-1.72,2.98-2.97ZM153.09,53.88c.07-.17-.18-.26-.28-.12-.5.73-.88,1.61-1.25,2.4-.06.14.12.26.21.12.47-.77.98-1.57,1.32-2.4ZM152.38,52.64c0-.2-.32-.25-.35-.05-.13.79-.33,1.43-.77,2.1-.1.14.13.33.24.19.51-.62.88-1.43.88-2.25Z"/>
      <path class="cls-1" d="M99.34,62.2c.13,1.96.69,3.89,1.62,5.58-3.09.31-6.06.09-9.01-1.09-3.67-1.46-8.44-4.67-7.89-9.17,1.23,1.26,2.93,3.14,4.6,3.24.28.01.34-.44.07-.49-1.59-.33-3.51-2.38-4.63-3.51-1.55-1.55-1.61-3.6-2.16-5.6l.12-.08c1.13,1.88,3.22,3.22,5.25,3.83.26.08.44-.31.19-.45-1.99-1-4-1.87-5.11-3.94-.29-.53-.47-1.11-.56-1.71-.03-.24-.22-1.64.07-1.78.45-.22,2.2.91,2.86,1.22,1.12,1.51,2.83,2.61,4.66,3.12.34.09.46-.39.14-.51-1.95-.73-3.74-1.78-4.8-3.64-.54-.96-.81-2.1-.78-3.2.07-2.06,1.7-1.11,2.89-.57.87,1.76,2.38,3.26,4.16,3.91.3.11.49-.36.22-.52-2.84-1.61-4.33-3.83-4.78-7.06.01.01.02.03.03.04,5.12,3.87,10.76,7.8,17.3,8.45-2.86,4.08-4.8,8.96-4.47,13.93ZM97.61,51.01c.19.05.27-.24.08-.29-.66-.16-1.32-.3-1.98-.43-.14-.02-.19.17-.06.2.65.19,1.3.36,1.96.52ZM96.87,51.61c.15-.03.11-.26-.03-.26-.76-.02-1.3-.15-1.94-.58-.1-.07-.22.09-.13.17.52.51,1.38.81,2.1.67Z"/>
      <path class="cls-5" d="M154.39,44.16c3.54,2.25,3.18,6.92,1.16,10.33.03.01.06.04.07.09.64,2.73-.29,5.39-2.16,7.18.01.01.03.04.02.07-.18,2.44-2.97,3.92-5.03,4.71-2,.78-6.38,2.03-8.43,1.07-.07-.03-.1-.1-.13-.16-1.42,2.15-3.38,3.86-5.87,4.79,0,.02.01.04,0,.07-.08,2.26-1.52,3.42-3.3,3.77.13,1.3.14,2.67.1,3.98,1.76-1.86,5.21-1.13,5.39,1.74,0,.05-.02.09-.05.11.26.47.39,1,.35,1.54,0,.1-.09.14-.16.14.07.1.14.2.2.31.05.09-.06.24-.16.16-.05-.04-.09-.08-.14-.12.05.17-.12.37-.33.27-3.39-1.77-7.25-1.72-10.46.43-.18.12-.48-.09-.39-.3.72-1.75,2.07-3.2,3.96-3.53-.11-1.53-.36-3.05-.48-4.59,0-.03.01-.06.03-.08-1.19-.14-2.35-.56-3.24-1.18-.05-.03-.06-.09-.06-.13-3.33.59-6.74.52-10.04-.23,0,0,0,.02-.02.03-.8.77-1.77,1.23-2.78,1.44.3,1.49.47,3.03.6,4.54,2.14.3,3.68,1.99,4.43,3.94.09.23-.2.4-.39.3-3.42-1.8-7.3-2.03-10.06,1.05-.1.12-.29.02-.3-.11-.01,0-.03-.01-.05-.03-.33-.37-.41-.86-.33-1.33-.03,0-.05,0-.07,0-.93-.43-.54-1.66-.02-2.27.12-.14.26-.27.41-.39-.05,0-.1-.03-.12-.09-.3-1.15.93-1.83,1.91-1.94.84-.09,1.76.16,2.46.67-.06-.33-.08-.69-.1-1.04-.08-1.07-.16-2.15-.16-3.23-1.95-.18-3.81-1.29-4.73-3.21-.07-.16.09-.28.2-.21.03,0,.05.03.07.05,2.13,3,5.4,3.57,8.37,1.64-.35-.09-.71-.18-1.06-.28-.16-.05-.09-.29.07-.26.47.11.92.2,1.38.29.09-.04.18-.01.24.05,3.7.69,7.3.68,11.08-.01.26-.05.37.34.11.4-.26.06-.5.1-.75.14,1.55.53,3.09,1.21,4.77.85,1.56-.33,2.84-1.53,2.98-3.16-.48.15-.97.28-1.48.37-.07,0-.09-.07-.03-.1,6.52-2.65,9.82-8.29,10.11-15.25.2-4.64-1.11-8.63-4.18-11.45-.07-.01-.11-.06-.13-.12-1.02-.91-2.22-1.7-3.62-2.33-.12-.06-.15-.18-.13-.29-.02,0-.03.01-.06.01-1.28-.05-2.5-.37-3.64-.89.72.96,1.45,1.91,2.17,2.86.13.18-.04.46-.25.44-1.95-.18-3.94-.93-5.31-2.37,1.42,2.4,2.67,4.78,2.69,7.64,0,.24-.26.39-.46.27-2.55-1.51-4.61-3.5-6.17-5.95.15,1.9.03,3.79-.48,5.65-.26.94-.93,3.95-2.12,4.15-1.11.18-1.65-1.53-1.97-2.27-.69-1.62-1.09-3.32-1.19-5.04-.56,2.31-1.7,4.38-3.42,6.2-.14.14-.34.09-.45-.06-1.82-2.5-1.73-5.28-.9-8.02-1.56,1.95-3.77,3.96-6.05,4.15-.09.01-.2-.05-.24-.14-.72-1.56.39-3.31,1.49-4.66-.47.22-.99.42-1.5.55-.48.79-.98,1.57-1.47,2.37,0,.06-.04.1-.09.14-2.05,3.33-3.91,6.71-4.42,10.72-.39,3.15.14,6.18,1.58,8.68.03,0,.06,0,.09,0,.25-.03.33.31.18.45,1.24,1.96,3.07,3.54,5.5,4.53.25.1.16.51-.12.43-.4-.12-.78-.27-1.15-.43-2.08-.92-3.73-2.47-4.89-4.36-4.23.75-8.65-.13-12.31-2.38-2.82-1.74-6.52-5-5.13-8.65-.04-.04-.08-.09-.12-.12-1.61-1.59-1.76-3.8-1.97-5.96-.01-.12.18-.14.2-.03.56,2,.61,4.06,2.16,5.6,1.13,1.12,3.05,3.17,4.63,3.51.28.05.22.5-.07.49-1.67-.1-3.37-1.99-4.6-3.24-.55,4.49,4.23,7.7,7.89,9.17,2.95,1.18,5.92,1.41,9.01,1.09-.93-1.69-1.49-3.62-1.62-5.58-.33-4.97,1.61-9.85,4.47-13.93-6.55-.66-12.18-4.59-17.3-8.45-.01-.01-.02-.03-.03-.04.45,3.22,1.93,5.44,4.78,7.06.28.16.09.63-.22.52-1.78-.66-3.29-2.15-4.16-3.91-1.19-.54-2.82-1.49-2.89.57-.03,1.09.24,2.24.78,3.2,1.05,1.87,2.84,2.92,4.8,3.64.31.12.2.6-.14.51-1.83-.51-3.54-1.61-4.66-3.12-.66-.31-2.42-1.44-2.86-1.22-.29.14-.1,1.54-.07,1.78.09.6.28,1.18.56,1.71,1.11,2.07,3.13,2.94,5.11,3.94.25.13.07.52-.19.45-2.04-.61-4.13-1.95-5.25-3.83-.4-.66-.67-1.38-.79-2.16-.08-.55-.24-2.06.4-2.43.6-.35,1.97.67,2.78,1.3-.48-.77-.83-1.64-.96-2.59-.1-.71-.28-2.99.61-3.42.62-.29,1.7.42,2.48.96-.38-.98-.55-2.03-.46-3.05.02-.16.16-.19.26-.12-.01-.24.21-.48.46-.31,5.4,3.81,10.66,7.4,17.26,8.61.5-.69,1.02-1.36,1.57-2-.68.12-1.33.09-1.8-.27-.1-.09-.08-.22,0-.28-.05-.11-.05-.24.06-.33,7.67-6.13.69-18.44,8.69-24.2.03-.01.05-.03.07-.03-.19-.42-.28-.87-.2-1.33.29-1.66,2.15-1.7,3.43-1.14-.88-1.38.58-2.9,1.95-3.29,1.45-.41,3.72-.03,4.21,1.54,1.24-.8,3.19-.43,4.2.56,1.28,1.26,1.27,3.38.2,4.76.16.17.32.34.47.52,4.75,5.95,2.02,14.64,7.51,20.31.14.14.09.32-.03.41,1.42.58,2.64,1.41,3.69,2.41,5.3-2.27,11.2-4.55,15.13-8.92.21-.23.61-.05.61.25,0,.82-.14,1.58-.39,2.28-.77,2.29-2.62,3.98-4.68,5.47-.28.2-.62-.25-.36-.47.93-.82,1.95-1.57,2.77-2.5.41-.46,2.4-3.75,1.93-3.84-.33-.06-3.24,2.61-3.75,2.94-3.38,2.14-7.11,3.94-10.96,5.09,5.06,5.22,5.58,14.82,1.78,21.09.03,0,.07-.01.1,0,.03,0,.06.01.09.03.18.05.23.24.18.39.45-.28.93-.39,1.47-.31.54-.03,1.08-.07,1.62-.12,1.04-.11,2.08-.29,3.1-.55,2.25-.58,5.6-1.9,6.41-4.34-.93.81-2.06,1.42-3.34,1.74-.42.1-.6-.53-.18-.65,3.85-1.09,5.92-4.38,5.69-8.29-.81,1.26-1.84,2.32-2.98,2.97-.34.2-.6-.29-.3-.51,2.38-1.76,4.34-5.01,4.34-8.09,0-1.76-.64-3.45-2.19-4.78-.48,2.09-1.66,4.02-3.39,5.29-.31.23-.67-.27-.4-.52,2.88-2.69,3.91-6.06,3.08-9.92-.01-.05,0-.09,0-.12.06-.12.26-.14.33.03.66,1.57.77,3.32.43,4.99.05-.02.09-.03.14,0ZM135.57,81.12c.05.05.1.11.15.17-.87-1.99-3.45-2.64-4.84-.56-.05.08-.13.11-.2.1-.13.07-.31,0-.32-.18-.07-1.49-.08-3.06.07-4.55-.53.08-1.08.09-1.64.04,0,.01.02.02.03.03.45,1.47.61,3.1.72,4.63.01.22-.19.29-.34.23-1.37.69-2.44,1.42-3.21,2.66,3.13-1.65,6.83-1.74,9.98.01-.32-.27-.64-.54-1.01-.76-.58-.35-1.19-.53-1.83-.74-.25-.08-.22-.51.07-.48,1.05.14,2.28.76,3,1.64-.09-.75-.4-1.4-.96-1.91-.59-.53-1.19-.59-1.92-.78-.19-.05-.18-.33,0-.38.78-.21,1.71.29,2.26.82ZM131.48,45.04c-.85-1.12-1.69-2.23-2.54-3.35-.18-.24.16-.53.39-.39,1.38.82,2.76,1.23,4.33,1.44-2.99-2.97-3.56-7.14-4.21-11.18-.22-1.34-.44-2.72-.8-4.05-.36-1.38-.86-2.7-1.64-3.9-2.71-4.21-7.85-4.99-10.95-.64-.12.18-.39.03-.29-.16.01-.03.03-.06.05-.09,2.2-4.19,7.04-4.18,10.21-1.28.83-1.15.85-2.84-.2-3.89-1.09-1.08-2.41-.9-3.66-.41,0,.05,0,.09,0,.13,0,.29-.41.34-.5.07h0c-.13,0-.28-.12-.18-.26.02-.02.04-.04.05-.06-.53-1.3-1.76-1.77-3.2-1.49-1.37.27-2.71,1.37-1.97,2.88.03.05.01.1-.01.15.14.18-.02.53-.28.43-1.09-.42-3.32-.93-3.02,1.07.22,1.54,1.72,1.63,2.66,2.5.03.03.03.07.02.1-.01.04-.05.07-.09.07-1.05,0-2.21-.69-2.81-1.66,0,0,0,.01,0,.02-2.36,2.29-3.18,5.18-3.56,8.23-.72,5.82.18,12.22-4.93,16.1,1.27.29,3.28-.82,4.18-1.31.28-.16.54.2.33.43-.65.73-2.26,2.23-2.25,3.35.02,2.12,1.21,1.03,2.02.52,1.8-1.13,3.23-2.63,4.38-4.4.16-.26.64-.09.51.21-.52,1.32-.96,2.6-1.13,4.01-.14,1.24-.19,4.29,1.16,4.71.92.28,2.44-3.37,2.69-4.08.44-1.27.63-2.59.67-3.94.02-.39.62-.39.61,0,0,.09-.02.18-.03.27.01,1.62.13,3.23.52,4.8.16.64.35,1.28.59,1.9.22.6.48,1.18.79,1.74.09.46.34.51.75.16,1.25-.2,1.79-3.42,1.99-4.57.3-1.76.26-3.52-.02-5.29-.05-.32.39-.57.56-.24,1.23,2.29,2.84,4.27,4.93,5.82.43.31.85.88,1.28.6.33-.22-.66-2.73-.78-3.03-.52-1.28-1.21-2.46-1.91-3.64-.15-.26.12-.5.35-.44-.01-.03-.04-.05-.06-.07-.12-.16.07-.35.23-.22,1.48,1.17,2.93,2.01,4.76,2.29ZM116.66,84.06c-.79-1.57-2.08-2.48-3.68-3.25-.11.11-.37.06-.39-.15-.17-1.51-.36-3.03-.47-4.54-.38.06-.77.07-1.15.05.1.72.17,1.45.24,2.18.09.96.04,2.02.53,2.88.15.27-.21.47-.4.26,0,0,0,0-.01,0-.56-.58-1.11-1.05-1.93-1.23-1-.22-2.63.05-2.63,1.39,0,.01-.01.02-.01.03.77-.6,1.78-.9,2.74-.77.24.03.17.41-.05.41-.84,0-1.6.14-2.29.63-.56.39-1.61,1.59-.77,2.23.09-.31.23-.6.41-.84.61-.8,1.68-1.23,2.65-1.33.25-.03.28.36.05.43-.77.23-1.52.39-2.13.96-.64.6-.73,1.35-.54,2.15,2.37-3.2,6.52-2.98,9.83-1.49Z"/>
      <path class="cls-5" d="M152.81,53.76c.09-.14.35-.05.28.12-.33.83-.85,1.64-1.32,2.4-.09.14-.27.02-.21-.12.37-.8.75-1.68,1.25-2.4Z"/>
      <path class="cls-5" d="M152.02,52.59c.03-.2.35-.15.35.05,0,.81-.37,1.63-.88,2.25-.11.14-.34-.05-.24-.19.45-.67.64-1.32.77-2.1Z"/>
      <path class="cls-2" d="M137.79,46.01c3.07,2.82,4.38,6.81,4.18,11.45-.29,6.95-3.59,12.59-10.11,15.25-.06.03-.04.1.03.1.51-.09,1-.22,1.48-.37-.14,1.62-1.42,2.82-2.98,3.16-1.68.36-3.22-.31-4.77-.85.25-.05.5-.09.75-.14.26-.06.15-.45-.11-.4-3.78.69-7.38.7-11.08.01-.07-.06-.15-.09-.24-.05-.46-.09-.92-.18-1.38-.29-.16-.04-.24.21-.07.26.35.1.71.2,1.06.28-2.97,1.93-6.24,1.36-8.37-1.64-.02-.03-.04-.05-.07-.05l.03-.05c.37.16.75.31,1.15.43.28.09.37-.32.12-.43-2.42-.99-4.25-2.57-5.5-4.53.15-.14.07-.48-.18-.45-.03,0-.06,0-.09,0-1.44-2.5-1.97-5.53-1.58-8.68.5-4.02,2.37-7.39,4.42-10.72.05-.03.09-.08.09-.14.48-.79.98-1.57,1.47-2.37.51-.13,1.03-.33,1.5-.55-1.11,1.36-2.21,3.11-1.49,4.66.04.09.16.15.24.14,2.28-.2,4.49-2.2,6.05-4.15-.83,2.74-.92,5.52.9,8.02.1.14.31.2.45.06,1.72-1.82,2.86-3.89,3.42-6.2.1,1.72.5,3.43,1.19,5.04.31.74.86,2.45,1.97,2.27,1.19-.2,1.87-3.2,2.12-4.15.51-1.86.64-3.75.48-5.65,1.56,2.45,3.62,4.44,6.17,5.95.2.12.46-.03.46-.27-.02-2.86-1.26-5.23-2.69-7.64,1.36,1.44,3.36,2.19,5.31,2.37.21.02.38-.26.25-.44-.72-.95-1.45-1.91-2.17-2.86,1.15.52,2.37.85,3.64.89.03,0,.04,0,.06-.01-.02.11,0,.23.13.29,1.4.64,2.6,1.42,3.62,2.33.02.06.07.1.13.12ZM138.41,53.53c.09-.33-.4-.45-.51-.14-.5,1.45-2.19.46-2.99-.06-.01-.01-.03,0-.04,0,0-.03,0-.06,0-.09-.05-.24-.41-.17-.42.06-.04.58-.22,1.14-.81,1.38-.57.22-1.19.01-1.58-.43-.1-.12-.31.04-.22.16.45.6,1.23.89,1.95.63.55-.2.97-.72,1.07-1.29.62.48,1.34.93,2.15.85.64-.05,1.24-.44,1.41-1.08ZM135.5,69.69c.14-.14-.05-.4-.22-.28-.31.2-.58.45-.89.67-.3.22-.62.41-.94.6-.16.1-.02.31.14.24.67-.29,1.4-.71,1.91-1.23ZM134.87,68.64c.14-.24-.2-.43-.36-.22-.37.49-.74.88-1.23,1.26-.15.12-.03.37.16.27.57-.28,1.11-.77,1.43-1.31ZM118.32,61.89c.14-.22-.17-.43-.35-.27-.37.32-.71.73-1.23.76-.49.03-.91-.31-.98-.79-.02-.15-.2-.1-.24.01-.11-.09-.31-.09-.41.06-.69,1.05-1.77,1.97-3.13,1.66-.61-.14-1.17-.53-1.51-1.05-.22-.32-.56-1.13-.45-1.72.1-.1.19-.21.27-.33.03-.05.04-.1.03-.15.02-.01.03-.03.05-.04.07-.05.05-.18-.05-.18-.07,0-.13.03-.19.05-.07-.01-.13,0-.19.05-.52.45-1.04,1.01-1.8.83-.81-.2-1.08-1.39-.12-1.6.09-.02.07-.16-.03-.16-.96-.01-1.2,1.24-.6,1.83.62.6,1.52.47,2.2.03,0,.14,0,.28,0,.41.07.87.63,1.7,1.35,2.18,1.59,1.04,3.86.19,4.59-1.5.11.45.54.78,1.02.85.69.09,1.42-.37,1.78-.94ZM111.42,64.73c.18.01.22-.27.05-.31-.83-.19-1.4-.58-1.81-1.34-.06-.11-.25-.03-.2.09.26.83,1.09,1.51,1.97,1.56ZM111.42,65.44c.26-.01.26-.43,0-.41-1.01.06-1.8-.38-2.41-1.15-.09-.1-.24.03-.18.14.47.94,1.57,1.47,2.59,1.42ZM103.21,54.59c.15-.18-.09-.45-.26-.27-.54.54-.86,1.32-.86,2.08,0,.14.22.18.26.03.16-.71.42-1.28.87-1.85ZM102.57,54.61c.14-.16-.07-.37-.24-.24-.73.58-1.08,1.63-.98,2.54.01.14.22.14.23,0,.04-.94.39-1.6.98-2.3Z"/>
      <path class="cls-5" d="M137.9,53.39c.11-.31.6-.19.51.14-.17.64-.77,1.03-1.41,1.08-.81.08-1.53-.37-2.15-.85-.1.57-.52,1.09-1.07,1.29-.72.26-1.5-.03-1.95-.63-.09-.12.11-.28.22-.16.39.44,1.01.65,1.58.43.59-.24.77-.81.81-1.38.01-.23.37-.3.42-.06,0,.03,0,.06,0,.09.01,0,.03,0,.04,0,.81.52,2.49,1.51,2.99.06Z"/>
      <path class="cls-6" d="M135.72,81.29c-.05-.06-.1-.12-.15-.17-.55-.52-1.48-1.03-2.26-.82-.18.05-.19.33,0,.38.73.19,1.33.25,1.92.78.56.5.87,1.16.96,1.91-.72-.88-1.95-1.5-3-1.64-.28-.03-.31.4-.07.48.64.21,1.24.39,1.83.74.37.22.69.49,1.01.76-3.14-1.76-6.85-1.66-9.98-.01.77-1.24,1.84-1.97,3.21-2.66.15.06.35-.01.34-.23-.11-1.53-.27-3.16-.72-4.63,0-.01-.02-.02-.03-.03.56.05,1.11.04,1.64-.04-.15,1.49-.14,3.06-.07,4.55,0,.18.19.25.32.18.07,0,.15-.03.2-.1,1.39-2.08,3.97-1.43,4.84.56Z"/>
      <path class="cls-5" d="M135.28,69.41c.18-.12.36.14.22.28-.51.52-1.24.94-1.91,1.23-.16.07-.29-.14-.14-.24.31-.2.64-.39.94-.6.31-.22.58-.47.89-.67Z"/>
      <path class="cls-5" d="M134.5,68.43c.16-.21.5-.03.36.22-.33.54-.86,1.03-1.43,1.31-.18.1-.31-.14-.16-.27.49-.37.86-.77,1.23-1.26Z"/>
      <path class="cls-5" d="M130.03,38.66c.09.14-.1.26-.22.16-.83-.64-1.12-1.89-1.02-2.89.02-.2.32-.2.31,0-.05,1.1.37,1.83.93,2.73Z"/>
      <path class="cls-5" d="M129.51,39.57c.16.11.02.38-.16.27-.73-.46-1.3-1.24-1.49-2.08-.03-.14.16-.19.21-.06.3.78.75,1.38,1.43,1.87Z"/>
      <path class="cls-5" d="M126.98,27.74c0,.07,0,.13,0,.2,0,1.24-1,2.34-2.25,2.46-.37.03-.74-.02-1.09-.14-.84-.29-1.55-.98-1.83-1.81-.07-.19.2-.28.31-.13.54.79,1.28,1.49,2.31,1.47,1.11-.01,1.94-.96,1.88-2.04-.03-.43.64-.43.67,0Z"/>
      <path class="cls-3" d="M125.84,17.55c1.05,1.05,1.03,2.73.2,3.89-3.17-2.9-8.01-2.91-10.21,1.28l-.08-.05s.01-.08-.02-.1c-.94-.86-2.44-.96-2.66-2.5-.29-2,1.93-1.49,3.02-1.07.26.1.43-.25.28-.43.03-.05.04-.1.01-.15-.74-1.51.6-2.61,1.97-2.88,1.43-.28,2.67.18,3.2,1.49-.01.02-.03.04-.05.06-.1.13.05.25.18.24h0c.09.29.49.24.5-.05,0-.05,0-.09,0-.13,1.25-.48,2.57-.67,3.66.41Z"/>
      <path class="cls-5" d="M123.6,33.26c.07.92-.29,1.48-.83,1.89.24,1.84-1.04,3.51-2.94,3.66-2.12.17-3.95-1.55-4.02-3.65-.11-.1-.22-.21-.31-.31-.54-.56-.71-1.27-.52-2.03.18-.73.61-1.28,1.18-1.66.98-.67,2.35-.88,3.49-.86.79.01,1.62.2,2.31.56.89.48,1.57,1.26,1.64,2.41ZM122.95,33.43c.05-1.19-.93-2.06-2.02-2.37-1.78-.51-5.05-.18-5.44,2.06-.25,1.45,2.27,2.76,3.45,3.73.4-.66,1.03-1,1.79-1.32,1.03-.43,2.17-.81,2.22-2.1ZM118.91,38.2c1.78.33,3.35-.96,3.3-2.71-1.07.58-2.47.9-2.98,2.02-.14.29-.64.08-.52-.22.02-.06.05-.1.07-.15-.85-.45-1.83-1.04-2.62-1.68.48,1.3,1.26,2.46,2.75,2.75Z"/>
      <path class="cls-6" d="M120.93,31.06c1.09.31,2.07,1.18,2.02,2.37-.05,1.3-1.19,1.68-2.22,2.1-.76.31-1.39.66-1.79,1.32-1.18-.97-3.7-2.28-3.45-3.73.39-2.24,3.66-2.57,5.44-2.06Z"/>
      <path class="cls-6" d="M122.21,35.49c.05,1.75-1.52,3.04-3.3,2.71-1.49-.28-2.27-1.44-2.75-2.75.79.65,1.77,1.23,2.62,1.68-.02.05-.05.09-.07.15-.12.29.38.51.52.22.51-1.12,1.91-1.44,2.98-2.02Z"/>
      <path class="cls-5" d="M117.96,61.63c.18-.16.5.05.35.27-.36.57-1.09,1.02-1.78.94-.48-.07-.9-.39-1.02-.85-.73,1.69-3.01,2.54-4.59,1.5-.72-.47-1.28-1.3-1.35-2.18-.01-.13-.01-.27,0-.41-.68.44-1.59.57-2.2-.03-.6-.6-.36-1.85.6-1.83.1,0,.12.14.03.16-.96.21-.69,1.4.12,1.6.76.18,1.28-.38,1.8-.83.06-.05.12-.06.19-.05.06-.03.12-.05.19-.05.1,0,.12.13.05.18-.02.01-.03.03-.05.04.01.05,0,.1-.03.15-.08.12-.16.22-.27.33-.1.58.24,1.4.45,1.72.35.52.9.91,1.51,1.05,1.36.31,2.44-.61,3.13-1.66.1-.14.3-.14.41-.06.04-.11.22-.16.24-.01.07.48.49.82.98.79.52-.03.86-.44,1.23-.76Z"/>
      <path class="cls-5" d="M115.39,29.02c.05.79-.42,1.57-1.08,2.05-.37.28-.81.45-1.26.48-1.23.09-2.48-.92-2.37-2.19.01-.17.27-.23.31-.05.22.99,1.13,1.83,2.2,1.58.98-.24,1.34-1.09,1.64-1.95.1-.31.54-.25.56.07Z"/>
      <path class="cls-6" d="M112.98,80.81c1.61.77,2.89,1.68,3.68,3.25-3.32-1.49-7.47-1.72-9.83,1.49-.18-.8-.09-1.55.54-2.15.61-.57,1.36-.73,2.13-.96.22-.07.2-.45-.05-.43-.97.1-2.04.53-2.65,1.33-.18.24-.33.53-.41.84-.83-.64.22-1.83.77-2.23.69-.48,1.45-.64,2.29-.63.22,0,.29-.37.05-.41-.96-.14-1.97.16-2.74.77,0-.01.01-.02.01-.03,0-1.34,1.62-1.61,2.63-1.39.82.18,1.36.65,1.93,1.23,0,0,.01,0,.01,0,.19.21.55,0,.4-.26-.49-.86-.45-1.93-.53-2.88-.07-.73-.13-1.45-.24-2.18.38.01.77,0,1.15-.05.1,1.51.29,3.03.47,4.54.03.21.28.26.39.15Z"/>
      <path class="cls-5" d="M111.46,64.42c.17.04.13.32-.05.31-.87-.05-1.7-.73-1.97-1.56-.05-.12.14-.2.2-.09.41.76.98,1.15,1.81,1.34Z"/>
      <path class="cls-5" d="M111.42,65.03c.26-.02.26.39,0,.41-1.02.05-2.12-.48-2.59-1.42-.06-.1.09-.24.18-.14.62.77,1.4,1.21,2.41,1.15Z"/>
      <path class="cls-5" d="M110.17,46.15c.13-.13.31.07.2.2-.58.73-1.47,1.23-2.37,1.44-.11.03-.15-.13-.05-.16.88-.31,1.56-.82,2.22-1.48Z"/>
      <path class="cls-5" d="M110.05,45.33c.14-.07.3.11.18.23-.24.22-.51.39-.77.59-.28.21-.53.45-.81.65-.12.09-.22-.09-.14-.18.4-.49.99-.99,1.55-1.28Z"/>
      <path class="cls-5" d="M102.95,54.32c.18-.18.41.09.26.27-.45.57-.71,1.14-.87,1.85-.03.15-.26.11-.26-.03,0-.76.33-1.54.86-2.08Z"/>
      <path class="cls-5" d="M102.34,54.37c.16-.13.37.07.24.24-.6.7-.94,1.36-.98,2.3,0,.14-.22.14-.23,0-.1-.9.24-1.96.98-2.54Z"/>
      <path class="cls-5" d="M97.69,50.72c.19.05.11.33-.08.29-.66-.16-1.31-.33-1.96-.52-.13-.03-.08-.22.06-.2.66.13,1.32.28,1.98.43Z"/>
      <path class="cls-5" d="M96.84,51.35c.14,0,.18.23.03.26-.72.14-1.59-.16-2.1-.67-.09-.09.03-.24.13-.17.64.43,1.18.56,1.94.58Z"/>
    </g>
    <g>
      <path class="cls-4" d="M72.02,39.15c-.9.14-1.8-.04-2.59-.5-.17-.1-.3.08-.24.22-.02.05-.03.09-.03.14.12.83.29,1.62.22,2.47-.03.37-.09.83-.21,1.19-.21.6-.37.77-.94.53-1.35-.56-2.29-1.59-2.95-2.87-.07-.12-.23-.09-.29,0-.12-.24-.5-.21-.52.11-.06,1.41-.05,2.78-.23,4.17-1.81-.79-3.47-1.7-4.35-3.54,0-.03.02-.05.03-.08.07-.26-.33-.45-.47-.19-.49,1.02-.87,2.11-1.27,3.18-1.91-1.19-1.78-3.45-1.92-5.49.03-.05.07-.11.1-.16.12-.25-.18-.49-.39-.3-1.09,1.03-1.78,2.31-3.21,2.96-.28.13-.99.47-1.28.33-.42-.18-.2-.9-.15-1.2.15-.94.54-1.76.93-2.62.06-.14-.09-.29-.21-.22-.05-.1-.16-.16-.29-.09-.74.45-1.39.92-2.24,1.15-.76.21-2.37.42-1.95-.86.34-1.04,1.41-1.66,1.85-2.66.07-.03.14-.05.22-.09.28-.12.08-.61-.21-.49-1.47.62-2.97.84-4.53.64.58-.48,1.19-.96,1.71-1.51.1-.06.2-.11.3-.17.2-.12.08-.49-.17-.4-.95.35-1.82.66-2.86.68-.24,0-.53,0-.84-.03-.09-.14-.27-.24-.47-.14-.05.02-.09.04-.14.06-.72-.14-1.42-.43-1.72-1.01,4.15-.9,7.35-3.54,9.2-7.41,2.42-5.06,3.96-12.89,11.11-12.93,8.98-.05,6.7,11.69,6.68,17.2-.01,3.86.96,7.71,4.31,9.93ZM69.46,37.67c.07.05.16-.03.1-.09-.6-.52-.9-1.17-1.1-1.93-.03-.1-.21-.09-.2.03.09.8.58,1.51,1.2,1.99ZM68.07,37.26c.09.09.24-.03.17-.13-.27-.46-.41-.9-.38-1.44,0-.22-.31-.21-.33,0-.05.57.14,1.17.54,1.57ZM62.89,19.55c1.78-.12,3.01-2.06,2.53-3.73-.1-.36-.64-.21-.56.16.28,1.32-.66,2.84-2.09,2.9-1.48.06-2.47-1.49-2.33-2.83.03-.26-.39-.31-.46-.06-.48,1.79,1.03,3.7,2.92,3.57ZM57.98,32.76c.05-.18-.22-.26-.28-.08-.18.54-.31,1.1-.45,1.65-.03.14.16.19.21.06.18-.54.38-1.08.52-1.63ZM57.28,32.78c.05-.09-.09-.17-.14-.08-.31.61-.62,1.22-.92,1.83-.03.07.07.13.11.06.31-.6.64-1.21.95-1.81ZM51.23,25.03c.01-.12-.2-.15-.22-.03-.09.6-.39,1.1-.88,1.45-.09.06-.01.2.08.14.57-.35.93-.92,1.02-1.57ZM48.89,27.41c.74-.5,1.39-1.45,1.37-2.37,0-.12-.17-.14-.21-.03-.13.43-.22.84-.44,1.24-.22.39-.5.71-.83,1.02-.07.07.02.2.1.14Z"/>
      <path class="cls-5" d="M75.8,22.5c.01.11-.03.2-.09.26,0,.03-.01.07-.04.1-1.66,1.94-4.53,2.55-6.98,2.28-.39,5.12-1.02,10.5,3.8,13.59.11.07.14.18.13.28.26.02.33.43.05.52-1,.29-2.02.2-2.9-.26.28.88.28,1.86.13,2.76-.09.55-.2,1.62-.82,1.89-2.35,14.35-12.27,29.83-28.36,30.07-.38,1.58-1.24,2.99-2.78,3.42.18,1.2.29,2.42.47,3.62.16-.07.33-.14.49-.2,0-.03.02-.05.05-.07,2.38-1.24,5.23-1.14,7.7-.2.12.05.16.16.16.26.21.09.17.43-.09.45-.63.05-1.19.18-1.76.42.57.41,1.09.91,1.51,1.5.09.13-.02.28-.16.31-.04.13-.18.24-.35.16-.63-.3-1.28-.46-1.94-.61.66.67,1.11,1.55,1.15,2.48.14.19-.07.5-.32.36-4.67-2.56-9.41-2.52-14.26-.45-.11.05-.2-.03-.22-.11-.21.09-.48-.13-.35-.39,1.02-1.97,3.13-3.48,5.35-3.68-.01-1.28.17-2.63.41-3.9-1.56-.5-2.82-2-2.92-3.61-7.5-.2-14.8-3-20.7-7.6C6.81,62,.2,54.57.73,47.29c0-.05.03-.09.06-.11-.59-1.21-.89-2.55-.75-3.79.01-.12.21-.18.24-.03.24,1.26.47,2.45,1.05,3.61.58,1.16,1.44,2.04,2.36,2.93.18.18-.05.48-.26.35-.94-.6-1.76-1.51-2.36-2.55.69,7.63,6.66,14.51,12.63,18.84,5.65,4.1,12.26,6.24,19.18,6.68.03-.29.1-.59.22-.88.05-.12.21-.1.22.03.23,2.21.86,4.53,3.58,4.61,2.58.08,3.35-2.52,3.47-4.6.03-.37.6-.38.59,0-.02.39-.06.79-.13,1.19,15.7-1.72,25.04-14.84,27.63-29.6-.69-.16-1.47-.77-1.93-1.16-.67-.59-1.19-1.34-1.51-2.17.16,1.49-.01,3.05-.23,4.52-.04.22-.3.26-.46.18-1.78-.75-3.88-1.75-4.65-3.62-.31.95-.69,1.88-1.04,2.81-.07.2-.27.29-.47.19-.27-.12-.5-.28-.72-.45.12,4.08-1.93,11.7-6.75,11.74-1.17,1.38-2.65,2.5-4.32,3.25-2.65,1.17-6.66,1.85-9.03-.22-.98.32-1.99.52-2.93.66-1.36.2-5.27.52-5.84-1.35-.01-.05,0-.11.03-.14.06-.05.11-.1.17-.16.02-.02.05-.03.07-.03.08,0,.15.09.1.17-.81,1.44,6.25.85,6.54.79,2.26-.5,4.32-1.27,5.69-3.24.15-.22.49-.03.36.21-.81,1.47-2.25,2.38-3.83,2.96,2.84,1.83,7.13.74,9.77-.88,2.54-1.57,4.03-3.82,5.15-6.5.11-.27.54-.18.45.12-.43,1.43-1.13,2.75-2.02,3.9,4.55-1.06,5.8-8.08,5.82-11.85,0-.01,0-.02,0-.03-.99-1.21-1.23-2.94-1.05-4.55-1.01,1.38-2.76,2.89-4.36,2.77-1.59-.12-.7-2.57.05-3.91-.65.52-1.49.85-2.28,1.01-.68.14-1.71.33-2.18-.33-.84-1.19.68-2.59,1.64-3.6-.9.29-1.83.41-2.78.4-4.71,3.05-10.44,4.24-15.87,5.25-2.99.55-5.99,1.02-8.98,1.6-1.02.2-5.25.41-4.11,2.73.66,1.35,4.71,1.02,6.02.92.15,0,.18.24.03.27-1.09.18-3.49.35-5.24-.14-1.78.56-2.06,1.98-.82,4.27.58.54,1.24.9,1.99,1.07.88.27,1.81.29,2.73.24,2.08-.11,3.89-.85,5.66-1.87.2-.12.36.17.18.3-1.75,1.26-4.36,2.23-6.79,2.16-2.57,2.38,1.49,4.74,3.05,5.18,1.43.41,2.97.34,4.41.03,2.37-.5,4.9-1.53,6.47-3.43.15-.18.45.05.32.24-1.23,1.85-3.62,3.13-6.12,3.67-1.97.43-4.02.41-5.63-.14-2.1-.72-5.25-3.74-2.97-5.58-1.13-.09-2.21-.43-3.12-1.09-1.78-1.3-2.19-4.78.15-5.23-.64-.26-1.15-.62-1.39-1.14-.06-.12-.1-.25-.12-.36h-.07c-.02-.14-.08-.28-.18-.42-.02-.03-.04-.05-.06-.08.09.01.18.03.27.03.09-.96,1.35-1.4,2.4-1.68,4.55-1.26,9.33-1.76,13.96-2.7,4.56-.93,8.79-2.33,13.04-4.15-.31-.03-.63-.07-.94-.13-.19-.03-.28-.32-.12-.45.41-.34.83-.69,1.27-1.01-.84.21-1.73.23-2.58.1-7.25,3.49-15.14,6-23.24,6.15-3.22.06-6.62-.17-9.6-1.51-1.17-.53-2.01-1.32-3.06-1.99-.56-.82-.74-.9-.54-.23.07.45.18.88.34,1.3.5,1.45,1.41,2.62,2.47,3.68.16.16-.07.37-.23.24-.41-.33-.77-.67-1.09-1.03-.03,0-.05,0-.07,0-1.37-.07-2.44-.9-3.36-1.84-.03-.03-.06-.06-.09-.09-.05-.05.03-.12.08-.08.81.82,1.85,1.14,2.92,1.38-1.04-1.39-1.58-3.02-1.69-4.91-.01-.24.35-.41.5-.21,3.9,5.01,11.07,5.04,16.84,4.46,6.56-.67,12.78-2.82,18.72-5.56-.64-.22-1.22-.6-1.33-1.28-.05,0-.09.02-.12.03-.26.05-.37-.33-.11-.39,3.75-.94,6.87-3.12,8.75-6.53.9-1.64,1.48-3.45,2.15-5.2-4-.39-8.33-2.25-7.51-7.11.75-4.38,5.5-6.25,9.34-4.9-.17-.63.21-1.47.5-2.02.67-1.26,1.87-2.23,3.26-2.59,2.29-.59,6.16.8,5.33,3.72,1.19-1.09,3.18-1.38,4.21.08,1.2,1.7.31,3.8-.74,5.33,1.32,1.1,2.25,2.67,2.8,4.37,3.52-.73,7.08,1.64,7.6,5.3ZM69.42,38.64c.8.47,1.7.65,2.59.5-3.35-2.21-4.32-6.07-4.31-9.93.01-5.52,2.29-17.25-6.68-17.2-7.15.04-8.69,7.87-11.11,12.93-1.85,3.87-5.05,6.51-9.2,7.41.29.58,1,.87,1.72,1.01.05-.02.09-.04.14-.06.2-.09.38,0,.47.14.31.03.6.03.84.03,1.04-.03,1.91-.33,2.86-.68.25-.09.37.28.17.4-.1.06-.2.11-.3.17-.52.54-1.13,1.02-1.71,1.51,1.56.2,3.06-.03,4.53-.64.29-.12.48.37.21.49-.07.03-.14.06-.22.09-.44,1-1.51,1.62-1.85,2.66-.42,1.28,1.19,1.07,1.95.86.85-.22,1.5-.7,2.24-1.15.12-.07.24-.01.29.09.12-.07.27.09.21.22-.39.86-.78,1.68-.93,2.62-.05.3-.27,1.02.15,1.2.29.13,1-.2,1.28-.33,1.43-.66,2.12-1.93,3.21-2.96.2-.19.51.05.39.3-.03.05-.07.11-.1.16.14,2.04.01,4.3,1.92,5.49.4-1.07.78-2.16,1.27-3.18.13-.26.54-.07.47.19,0,.03-.02.05-.03.08.88,1.85,2.54,2.75,4.35,3.54.18-1.4.17-2.76.23-4.17.01-.32.39-.35.52-.11.07-.09.23-.12.29,0,.66,1.28,1.61,2.31,2.95,2.87.57.24.73.07.94-.53.12-.35.18-.82.21-1.19.07-.85-.1-1.64-.22-2.47,0-.05,0-.1.03-.14-.06-.14.07-.32.24-.22ZM68.75,24.5c2.36.25,4.2-.47,6.17-1.56-2.02-.15-4.06-.49-6.06-.82,0,.77-.05,1.57-.1,2.38ZM75.25,22.64c-.75-3.42-3.52-5.45-6.93-5.06.18.62.32,1.26.41,1.89.09.67.12,1.38.13,2.1.01,0,.03,0,.04,0,2.12.29,4.28.57,6.35,1.07ZM65.12,12.61c.6-1.26,1.35-2.6.94-4.04-.57-2-2.47-1.6-3.85-.75-.17.1-.35-.05-.36-.2-.11.09-.29,0-.27-.17.41-2.62-2.81-3.64-4.8-3.14-.79.2-1.51.61-2.07,1.18-.52.51-1.83,2.26-1.09,3.03.2.21-.06.54-.31.4-.04-.02-.06-.05-.09-.07-3.6-.92-8.09.03-9.03,4.23-1.06,4.74,3.37,6.28,7.05,6.71.31-.78.64-1.55,1.04-2.29,1.91-3.51,5.41-6.65,9.68-6.14,1.23.14,2.27.6,3.16,1.26ZM44.63,81.49c.43-.3.93-.51,1.45-.61-1.56-.5-3.07-.58-4.6-.39,1.11.07,2.2.41,3.15,1ZM43.61,82.71c.75-.08,1.48.1,2.18.38-1.93-2-4.74-2.63-7.36-1.62-.09.22-.43.28-.5.03,0,0,0-.01,0-.02,0,0,0-.01-.01-.02,0-.03,0-.05,0-.07,0,0,0,0,0-.01-.19-1.28-.34-2.58-.3-3.88-.28.05-.58.07-.91.05-.18,0-.36-.04-.54-.08.02,1.31-.03,2.69-.28,3.96-.03.17-.19.21-.32.16-.02.02-.03.04-.06.05-2.08.63-3.64,1.65-4.86,3.43,4.25-2.59,9.81-2.36,14.05.15-.67-1.74-2.06-2.85-4.01-2.9-.35-.01-.33-.5,0-.54.12-.01.26-.02.39-.02.91,0,1.83.36,2.56.94Z"/>
      <path class="cls-6" d="M74.92,22.94c-1.97,1.09-3.81,1.81-6.17,1.56.05-.81.1-1.61.1-2.38,2,.33,4.04.67,6.06.82Z"/>
      <path class="cls-6" d="M68.31,17.57c3.41-.39,6.18,1.64,6.93,5.06-2.07-.5-4.23-.78-6.35-1.07-.01,0-.03,0-.04,0,0-.72-.04-1.43-.13-2.1-.09-.64-.23-1.27-.41-1.89Z"/>
      <path class="cls-5" d="M69.56,37.58c.07.06-.03.14-.1.09-.62-.48-1.11-1.19-1.2-1.99-.01-.12.17-.13.2-.03.2.76.5,1.4,1.1,1.93Z"/>
      <path class="cls-5" d="M68.24,37.13c.07.1-.08.22-.17.13-.41-.41-.59-1-.54-1.57.02-.21.34-.22.33,0-.03.54.11.98.38,1.44Z"/>
      <path class="cls-2" d="M66.53,42.8c.45.39,1.23,1,1.93,1.16-2.59,14.76-11.92,27.88-27.63,29.6.07-.39.11-.79.13-1.19.01-.38-.56-.37-.59,0-.12,2.08-.88,4.68-3.47,4.6-2.73-.08-3.35-2.4-3.58-4.61-.01-.14-.18-.16-.22-.03-.12.29-.19.58-.22.88-6.93-.43-13.54-2.57-19.18-6.68-5.97-4.32-11.94-11.21-12.63-18.84.6,1.04,1.42,1.95,2.36,2.55.21.14.44-.17.26-.35-.92-.89-1.78-1.77-2.36-2.93-.58-1.16-.81-2.35-1.05-3.61l.13-.05c.35.94,1.3,1.89,2.27,2.25,1.02,1.28,2.49,2.29,3.99,2.88.2.08.31-.23.14-.33-2.57-1.59-5.6-3.62-4.86-7.04.88.73,1.85,1.36,2.95,1.72.67,1.24,1.7,2.31,2.9,2.95.28.15.5-.24.25-.42-2.27-1.51-3.31-3.63-3.49-6.18-.1-.09-.2-.17-.3-.26l.14-.13c.92.94,1.99,1.77,3.36,1.84.03,0,.05,0,.07,0,.32.35.67.7,1.09,1.03.16.13.39-.08.23-.24-1.06-1.06-1.97-2.23-2.47-3.68-.16-.42-.27-.86-.34-1.3-.2-.67-.03-.59.54.23,1.05.67,1.89,1.46,3.06,1.99,2.97,1.34,6.38,1.57,9.6,1.51,8.1-.14,15.99-2.66,23.24-6.15.85.12,1.74.1,2.58-.1-.44.31-.86.67-1.27,1.01-.15.12-.07.41.12.45.31.07.62.1.94.13-4.26,1.82-8.48,3.22-13.04,4.15-4.63.94-9.41,1.43-13.96,2.7-1.05.29-2.31.72-2.4,1.68-.09,0-.18-.02-.27-.03.02.03.04.05.06.08.1.14.16.28.18.42h.07c.03.11.07.24.12.36.24.52.75.88,1.39,1.14-2.34.45-1.93,3.92-.15,5.23.91.66,1.99,1,3.12,1.09-2.28,1.83.88,4.85,2.97,5.58,1.61.55,3.66.58,5.63.14v.05s-.04.01-.06.03c-.06.05-.11.1-.17.16-.03.03-.05.09-.03.14.57,1.87,4.48,1.55,5.84,1.35.94-.14,1.95-.34,2.93-.66,2.37,2.06,6.38,1.39,9.03.22,1.68-.75,3.15-1.87,4.32-3.25,4.82-.04,6.87-7.67,6.75-11.74.22.17.45.32.72.45.2.1.39.01.47-.19.35-.93.73-1.86,1.04-2.81.77,1.87,2.88,2.86,4.65,3.62.16.07.42.04.46-.18.22-1.47.39-3.03.23-4.52.32.83.83,1.58,1.51,2.17ZM64.8,53.36c.01-.16-.23-.18-.28-.03-.33,1.07-.7,1.94-1.51,2.75-.12.12.06.3.19.19.83-.71,1.51-1.8,1.59-2.91ZM64.5,52.69c.01-.22-.29-.23-.37-.05-.15.38-.22.76-.43,1.13-.18.33-.43.6-.65.91-.07.09.06.2.15.14.65-.42,1.24-1.36,1.29-2.14ZM35.3,61.87c.22-.07.13-.39-.1-.35-1.04.2-2.01.27-3.07.12-.14-.01-.17.22-.03.26,1.04.24,2.17.26,3.2-.03ZM34.99,60.96c.23-.06.13-.41-.1-.35-1.4.31-2.65.24-4.04-.11-.12-.03-.16.14-.05.18,1.3.55,2.82.62,4.19.28ZM5.73,55.99c.17.06.29-.22.12-.29-.62-.29-1.04-.81-1.13-1.5-.02-.16-.25-.17-.25,0,0,.79.51,1.53,1.25,1.8ZM4.87,56.74c.09.1.26-.03.19-.15-.52-.98-1.06-1.91-1.51-2.94-.05-.12-.24-.03-.21.09.29,1.05.81,2.18,1.53,3Z"/>
      <path class="cls-3" d="M66.05,8.58c.41,1.43-.34,2.77-.94,4.04-.88-.66-1.93-1.11-3.16-1.26-4.27-.51-7.78,2.63-9.68,6.14-.4.74-.73,1.51-1.04,2.29-3.68-.43-8.11-1.97-7.05-6.71.94-4.19,5.44-5.14,9.03-4.23.03.03.05.05.09.07.25.14.5-.19.31-.4-.75-.77.57-2.52,1.09-3.03.56-.57,1.28-.98,2.07-1.18,1.99-.5,5.2.52,4.8,3.14-.03.18.16.26.27.17.01.16.19.3.36.2,1.38-.85,3.28-1.25,3.85.75ZM47.2,17.09c.16.06.22-.19.07-.25-.51-.19-.9-.52-1.19-.98-.07-.1-.22-.01-.16.09.26.54.72.94,1.28,1.14ZM46.2,17.24c.12.05.26-.1.15-.19-.73-.57-1.17-1.24-1.28-2.16-.01-.14-.2-.14-.22,0-.05.93.49,1.95,1.35,2.35Z"/>
      <path class="cls-5" d="M65.42,15.82c.48,1.67-.75,3.62-2.53,3.73-1.89.13-3.39-1.78-2.92-3.57.07-.25.48-.2.46.06-.14,1.34.85,2.89,2.33,2.83,1.43-.05,2.37-1.58,2.09-2.9-.08-.37.46-.52.56-.16Z"/>
      <path class="cls-5" d="M64.53,53.32c.05-.14.29-.12.28.03-.09,1.11-.77,2.19-1.59,2.91-.13.11-.31-.07-.19-.19.81-.81,1.18-1.68,1.51-2.75Z"/>
      <path class="cls-5" d="M64.13,52.65c.07-.18.38-.18.37.05-.05.78-.64,1.72-1.29,2.14-.09.06-.22-.06-.15-.14.22-.31.47-.58.65-.91.2-.37.28-.75.43-1.13Z"/>
      <path class="cls-5" d="M57.7,32.69c.06-.18.33-.1.28.08-.14.55-.34,1.09-.52,1.63-.05.13-.24.08-.21-.06.14-.55.27-1.11.45-1.65Z"/>
      <path class="cls-5" d="M57.14,32.7c.05-.09.18-.01.14.08-.31.61-.64,1.21-.95,1.81-.04.07-.14.01-.11-.06.31-.62.62-1.23.92-1.83Z"/>
      <path class="cls-1" d="M56.87,43.69s0,.01,0,.03c-.01,3.77-1.27,10.79-5.82,11.85.9-1.16,1.6-2.48,2.02-3.9.09-.3-.34-.39-.45-.12-1.12,2.68-2.61,4.93-5.15,6.5-2.63,1.62-6.93,2.71-9.77.88,1.59-.58,3.03-1.49,3.83-2.96.13-.24-.21-.43-.36-.21-1.37,1.97-3.43,2.73-5.69,3.24-.29.07-7.35.66-6.54-.79.05-.09-.02-.17-.1-.17v-.05c2.49-.54,4.88-1.82,6.11-3.67.12-.19-.17-.43-.32-.24-1.57,1.89-4.1,2.92-6.47,3.43-1.44.31-2.98.37-4.41-.03-1.56-.45-5.63-2.8-3.05-5.18,2.43.07,5.04-.9,6.79-2.16.18-.13.02-.42-.18-.3-1.78,1.02-3.58,1.76-5.66,1.87-.91.05-1.85.03-2.73-.24-.74-.17-1.4-.52-1.99-1.07-1.24-2.29-.96-3.71.82-4.27,1.75.49,4.15.33,5.24.14.15-.03.12-.28-.03-.27-1.31.1-5.37.43-6.02-.92-1.14-2.33,3.09-2.53,4.11-2.73,2.99-.58,5.99-1.05,8.98-1.6,5.44-1.01,11.16-2.19,15.87-5.25.94,0,1.87-.11,2.78-.4-.96,1.01-2.48,2.41-1.64,3.6.47.67,1.5.47,2.18.33.79-.16,1.63-.49,2.28-1.01-.75,1.34-1.64,3.79-.05,3.91,1.59.12,3.35-1.39,4.36-2.77-.17,1.61.07,3.34,1.05,4.55ZM39.59,40.4c.14-.06.04-.28-.1-.24-.61.2-1.2.47-1.79.7-.12.05-.07.24.05.2.61-.22,1.24-.41,1.83-.66ZM39.09,39.74c.12-.07.02-.25-.11-.19-.77.37-1.55.6-2.41.66-.1,0-.1.17,0,.16.88-.04,1.74-.24,2.52-.64ZM19.21,49.58c.21,0,.21-.31,0-.33-.48-.03-.82-.35-.92-.81-.02-.11-.18-.09-.19.03-.01.6.52,1.11,1.11,1.11ZM18.55,50.18c.1,0,.16-.16.06-.2-.31-.14-.61-.25-.85-.5-.26-.28-.42-.64-.44-1.02,0-.14-.21-.14-.22,0-.03.78.59,1.75,1.45,1.72Z"/>
      <path class="cls-5" d="M51.02,25.01c.02-.12.23-.1.22.03-.09.66-.45,1.23-1.02,1.57-.09.05-.16-.09-.08-.14.49-.35.79-.86.88-1.45Z"/>
      <path class="cls-5" d="M50.26,25.03c.02.92-.63,1.87-1.37,2.37-.09.05-.18-.07-.1-.14.32-.3.61-.63.83-1.02.22-.4.31-.81.44-1.24.04-.11.2-.09.21.03Z"/>
      <path class="cls-5" d="M47.27,16.84c.15.06.09.31-.07.25-.56-.2-1.02-.6-1.28-1.14-.05-.1.1-.2.16-.09.28.46.67.79,1.19.98Z"/>
      <path class="cls-5" d="M46.35,17.05c.11.09-.03.24-.15.19-.86-.41-1.4-1.42-1.35-2.35.01-.14.2-.14.22,0,.12.92.56,1.59,1.28,2.16Z"/>
      <path class="cls-6" d="M46.08,80.88c-.52.1-1.02.31-1.45.61-.95-.59-2.04-.94-3.15-1,1.53-.19,3.04-.1,4.6.39Z"/>
      <path class="cls-6" d="M45.79,83.09c-.69-.28-1.43-.46-2.18-.38-.73-.58-1.65-.94-2.56-.94-.13,0-.26,0-.39.02-.33.04-.35.52,0,.54,1.95.05,3.34,1.17,4.01,2.9-4.23-2.51-9.8-2.75-14.05-.15,1.23-1.78,2.78-2.8,4.86-3.43.03-.01.04-.03.06-.05.13.05.29,0,.32-.16.24-1.27.29-2.65.28-3.96.18.04.36.07.54.08.33.02.63,0,.91-.05-.04,1.3.11,2.6.3,3.88,0,0,0,0,0,.01,0,.02,0,.05,0,.07,0,0,0,.01.01.02,0,0,0,.01,0,.02.07.24.41.19.5-.03,2.62-1.01,5.43-.38,7.36,1.62Z"/>
      <path class="cls-5" d="M39.49,40.17c.14-.05.24.18.1.24-.59.26-1.23.45-1.83.66-.12.05-.18-.15-.05-.2.59-.24,1.18-.5,1.79-.7Z"/>
      <path class="cls-5" d="M38.98,39.55c.13-.06.24.12.11.19-.79.4-1.64.6-2.52.64-.1,0-.1-.16,0-.16.86-.07,1.64-.29,2.41-.66Z"/>
      <path class="cls-5" d="M35.2,61.52c.23-.04.32.28.1.35-1.03.29-2.16.28-3.2.03-.14-.03-.11-.27.03-.26,1.05.14,2.02.07,3.07-.12Z"/>
      <path class="cls-5" d="M34.89,60.61c.23-.05.33.29.1.35-1.37.34-2.88.27-4.19-.28-.11-.05-.07-.22.05-.18,1.39.35,2.63.42,4.04.11Z"/>
      <path class="cls-5" d="M19.21,49.25c.21.01.21.33,0,.33-.6,0-1.13-.52-1.11-1.11,0-.11.17-.14.19-.03.1.47.45.78.92.81Z"/>
      <path class="cls-5" d="M18.61,49.98c.1.05.05.2-.06.2-.86.03-1.47-.94-1.45-1.72,0-.14.21-.14.22,0,.02.38.18.74.44,1.02.24.26.54.37.85.5Z"/>
      <path class="cls-5" d="M8.03,45.3c.26.18.03.57-.25.42-1.21-.65-2.23-1.71-2.9-2.95-1.09-.35-2.06-.99-2.95-1.72-.74,3.42,2.29,5.45,4.86,7.04.17.1.06.41-.14.33-1.5-.59-2.97-1.6-3.99-2.88-.96-.36-1.91-1.3-2.27-2.25,0,0,0-.02,0-.03-.03-.09.1-.16.16-.09.34.4.63.82,1.02,1.17.18.17.37.31.58.46-.75-1.25-1.07-2.71-.61-4.28.06-.18.28-.23.41-.11.85.74,1.75,1.28,2.69,1.84-.51-1.13-.73-2.37-.57-3.58.05.07.1.12.17.18.1.09.2.17.3.26.18,2.56,1.23,4.68,3.49,6.18Z"/>
      <path class="cls-5" d="M5.86,55.7c.16.08.05.35-.12.29-.74-.27-1.26-1.01-1.25-1.8,0-.17.23-.16.25,0,.09.69.5,1.21,1.13,1.5Z"/>
      <path class="cls-5" d="M5.06,56.59c.07.12-.1.26-.19.15-.71-.83-1.24-1.95-1.53-3-.03-.12.16-.21.21-.09.45,1.03.98,1.96,1.51,2.94Z"/>
    </g>
  </g>
</svg>